<svg width="21" height="21" viewBox="0 0 21 21" fill="none" xmlns="http://www.w3.org/2000/svg">
<path d="M21 10.5C21 12.7599 20.2709 14.9594 18.9211 16.7718C17.5712 18.5842 15.6726 19.9128 13.5075 20.5601C11.3423 21.2074 9.02607 21.1388 6.90296 20.3647C4.77985 19.5905 2.96316 18.152 1.72284 16.2629C0.482514 14.3739 -0.115249 12.1351 0.0183703 9.87916C0.15199 7.62326 1.00986 5.47067 2.46451 3.74123C3.91916 2.0118 5.89296 0.79783 8.09261 0.279702C10.2923 -0.238426 12.6004 -0.0330572 14.674 0.865292L13.9749 2.47898C12.2486 1.7311 10.3271 1.56012 8.49582 1.99147C6.66458 2.42282 5.02137 3.43347 3.81035 4.87324C2.59934 6.31302 1.88515 8.10508 1.77391 9.98314C1.66267 11.8612 2.16032 13.7251 3.1929 15.2977C4.22549 16.8704 5.7379 18.0679 7.50542 18.7124C9.27294 19.357 11.2012 19.414 13.0038 18.8751C14.8063 18.3363 16.3869 17.2302 17.5106 15.7214C18.6344 14.2125 19.2414 12.3814 19.2414 10.5H21Z" fill="#05D8E8"/>
</svg>
