<svg width="24" height="24" viewBox="0 0 24 24" fill="none" xmlns="http://www.w3.org/2000/svg">
<path d="M12 1.60001C11.5584 1.60001 11.2 1.95841 11.2 2.40001V2.53751C11.2 2.91991 10.9307 3.26108 10.5531 3.32188C10.3699 3.35148 10.1885 3.38577 10.0093 3.42657C9.63815 3.51137 9.26276 3.30121 9.11716 2.95001L9.06404 2.82501C8.89524 2.41701 8.42753 2.22259 8.01873 2.39219C7.61073 2.56099 7.41631 3.02871 7.58591 3.43751L7.63904 3.56563C7.78624 3.91763 7.66853 4.33434 7.34373 4.53594C7.18693 4.63354 7.03395 4.73579 6.88435 4.84219C6.57395 5.06379 6.14458 5.01336 5.87498 4.74376L5.7781 4.64688C5.4653 4.33408 4.95885 4.33408 4.64685 4.64688C4.33485 4.95968 4.33485 5.46613 4.64685 5.77813L4.74373 5.87501C5.01333 6.14461 5.06376 6.57318 4.84216 6.88438C4.73576 7.03398 4.63351 7.18696 4.53591 7.34376C4.33431 7.66856 3.91684 7.78703 3.56404 7.64063L3.43748 7.58751C3.02948 7.41871 2.5602 7.61232 2.3906 8.02032C2.2218 8.42832 2.41541 8.89603 2.82341 9.06563L2.94841 9.11719C3.29961 9.26279 3.51134 9.63818 3.42654 10.0094C3.38574 10.1886 3.34989 10.3699 3.32029 10.5531C3.26029 10.9299 2.91988 11.2 2.53748 11.2H2.39998C1.95838 11.2 1.59998 11.5584 1.59998 12C1.59998 12.4416 1.95838 12.8 2.39998 12.8H2.53748C2.91988 12.8 3.26105 13.0693 3.32185 13.4469C3.35145 13.6301 3.38574 13.8114 3.42654 13.9906C3.51134 14.3618 3.30118 14.7372 2.94998 14.8828L2.82498 14.9359C2.41698 15.1047 2.22256 15.5725 2.39216 15.9813C2.56096 16.3893 3.02868 16.5837 3.43748 16.4141L3.5656 16.3609C3.9184 16.2145 4.33508 16.3323 4.53748 16.6563C4.63508 16.8131 4.73653 16.9668 4.84373 17.1172C5.06533 17.4276 5.01489 17.857 4.74529 18.1266L4.64685 18.2234C4.33405 18.5362 4.33405 19.0427 4.64685 19.3547C4.95965 19.6667 5.4661 19.6675 5.7781 19.3547L5.87654 19.2578C6.14614 18.9882 6.57395 18.9362 6.88435 19.1578C7.03475 19.265 7.18849 19.368 7.34529 19.4656C7.66929 19.6672 7.78856 20.0847 7.64216 20.4375L7.58904 20.5641C7.42024 20.9721 7.61385 21.4413 8.02185 21.6109C8.42985 21.7797 8.89756 21.5861 9.06716 21.1781L9.11873 21.0531C9.26433 20.7019 9.63971 20.4902 10.0109 20.575C10.1901 20.6158 10.3715 20.6517 10.5547 20.6813C10.9299 20.7397 11.2 21.0801 11.2 21.4625V21.6C11.2 22.0416 11.5584 22.4 12 22.4C12.4416 22.4 12.8 22.0416 12.8 21.6V21.4625C12.8 21.0801 13.0693 20.7389 13.4468 20.6781C13.63 20.6485 13.8114 20.6142 13.9906 20.5734C14.3618 20.4886 14.7372 20.6988 14.8828 21.05L14.9359 21.175C15.1047 21.583 15.5724 21.7774 15.9812 21.6078C16.3892 21.439 16.5836 20.9713 16.414 20.5625L16.3609 20.4344C16.2145 20.0816 16.3322 19.6649 16.6562 19.4625C16.813 19.3649 16.9668 19.2635 17.1172 19.1563C17.4276 18.9347 17.8569 18.9851 18.1265 19.2547L18.2234 19.3531C18.5362 19.6659 19.0427 19.6659 19.3547 19.3531C19.6667 19.0403 19.6675 18.5339 19.3547 18.2219L19.2578 18.1234C18.9882 17.8538 18.9362 17.426 19.1578 17.1156C19.265 16.9652 19.368 16.8115 19.4656 16.6547C19.6672 16.3307 20.0847 16.2114 20.4375 16.3578L20.564 16.4109C20.972 16.5797 21.4413 16.3861 21.6109 15.9781C21.7797 15.5701 21.5861 15.1024 21.1781 14.9328L21.0531 14.8813C20.7019 14.7357 20.4902 14.3603 20.575 13.9891C20.6158 13.8099 20.6516 13.6285 20.6812 13.4453C20.7396 13.0701 21.0801 12.8 21.4625 12.8H21.6C22.0416 12.8 22.4 12.4416 22.4 12C22.4 11.5584 22.0416 11.2 21.6 11.2H21.4625C21.0801 11.2 20.7389 10.9307 20.6781 10.5531C20.6485 10.3699 20.6142 10.1886 20.5734 10.0094C20.4886 9.63818 20.6988 9.26279 21.05 9.11719L21.175 9.06407C21.583 8.89527 21.7774 8.42756 21.6078 8.01876C21.439 7.61076 20.9713 7.41634 20.5625 7.58594L20.4343 7.63907C20.0815 7.78547 19.6649 7.66776 19.4625 7.34376C19.3649 7.18696 19.2634 7.03322 19.1562 6.88282C18.9346 6.57242 18.9851 6.14304 19.2547 5.87344L19.3531 5.77657C19.6659 5.46377 19.6659 4.95732 19.3531 4.64532C19.0403 4.33252 18.5338 4.33252 18.2218 4.64532L18.125 4.74376C17.8554 5.01336 17.426 5.06536 17.1156 4.84376C16.9652 4.73656 16.8115 4.63354 16.6547 4.53594C16.3307 4.33434 16.2129 3.91687 16.3593 3.56407L16.4125 3.43751C16.5813 3.02951 16.3877 2.56023 15.9797 2.39063C15.5717 2.22183 15.1039 2.41544 14.9344 2.82344L14.8812 2.94844C14.7356 3.29964 14.3602 3.51137 13.989 3.42657C13.8098 3.38577 13.6285 3.34992 13.4453 3.32032C13.0693 3.26032 12.8 2.91991 12.8 2.53751V2.40001C12.8 1.95841 12.4416 1.60001 12 1.60001ZM12 5.60001C15.2629 5.60001 17.9508 8.04391 18.3453 11.2H13.3828C13.2426 10.9572 13.0411 10.7555 12.7984 10.6151C12.5557 10.4747 12.2804 10.4005 12 10.4C11.9995 10.4 11.9989 10.4 11.9984 10.4L9.51716 6.10001C10.2808 5.77819 11.1193 5.60001 12 5.60001ZM8.13591 6.90626L10.6156 11.2C10.4747 11.4431 10.4004 11.719 10.4 12C10.4009 12.2799 10.4753 12.5547 10.6156 12.7969L8.13435 17.0922C6.59712 15.9232 5.59998 14.0801 5.59998 12C5.59998 9.91916 6.59768 8.07517 8.13591 6.90626ZM13.3843 12.8H18.3453C17.9508 15.9561 15.2629 18.4 12 18.4C11.1193 18.4 10.2808 18.2218 9.51716 17.9L11.9984 13.6C11.9989 13.6 11.9995 13.6 12 13.6C12.2806 13.5998 12.5563 13.5257 12.7993 13.3853C13.0422 13.2449 13.244 13.0431 13.3843 12.8Z" fill="white"/>
</svg>
