<svg width="16" height="16" viewBox="0 0 16 16" fill="none" xmlns="http://www.w3.org/2000/svg">
<path d="M7.99998 1.60001C4.46558 1.60001 1.59998 4.46561 1.59998 8.00001C1.59998 11.5344 4.46558 14.4 7.99998 14.4C11.5344 14.4 14.4 11.5344 14.4 8.00001C14.4 4.46561 11.5344 1.60001 7.99998 1.60001ZM8.53331 11.2H7.46664V7.46667H8.53331V11.2ZM7.99998 6.13334C7.55838 6.13334 7.19998 5.77494 7.19998 5.33334C7.19998 4.89174 7.55838 4.53334 7.99998 4.53334C8.44158 4.53334 8.79998 4.89174 8.79998 5.33334C8.79998 5.77494 8.44158 6.13334 7.99998 6.13334Z" fill="white"/>
</svg>
