<svg width="29" height="29" viewBox="0 0 29 29" fill="none" xmlns="http://www.w3.org/2000/svg">
<g clip-path="url(#clip0)">
<path d="M14.5 29C11.6322 29 8.82875 28.1496 6.44424 26.5563C4.05973 24.963 2.20122 22.6984 1.10375 20.0489C0.00628253 17.3994 -0.280866 14.4839 0.27862 11.6712C0.838106 8.85847 2.2191 6.27482 4.24696 4.24696C6.27482 2.2191 8.85847 0.838106 11.6712 0.27862C14.4839 -0.280866 17.3994 0.00628253 20.0489 1.10375C22.6984 2.20122 24.963 4.05973 26.5563 6.44424C28.1496 8.82875 29 11.6322 29 14.5C28.9946 18.344 27.4652 22.029 24.7471 24.7471C22.029 27.4652 18.344 28.9946 14.5 29ZM14.5 1.01755C11.8334 1.01755 9.22673 1.80828 7.00956 3.28975C4.79238 4.77122 3.0643 6.8769 2.04384 9.34049C1.02339 11.8041 0.756388 14.515 1.27661 17.1303C1.79684 19.7456 3.08092 22.148 4.96647 24.0335C6.85203 25.9191 9.25437 27.2032 11.8697 27.7234C14.4851 28.2436 17.1959 27.9766 19.6595 26.9562C22.1231 25.9357 24.2288 24.2076 25.7103 21.9905C27.1917 19.7733 27.9825 17.1666 27.9825 14.5C27.9784 10.9255 26.5567 7.49851 24.0291 4.97093C21.5015 2.44336 18.0745 1.02159 14.5 1.01755Z" fill="white"/>
<path d="M13.1111 24.126C10.2162 23.8767 7.81475 22.2893 6.87352 20.1372C6.58713 19.497 6.43974 18.8034 6.44107 18.1021C6.44107 15.9093 7.88089 13.9912 10.033 12.9279L10.1297 12.8821C9.89174 12.8233 9.68303 12.6806 9.5419 12.4802C9.40076 12.2799 9.33668 12.0353 9.36144 11.7915C9.38619 11.5477 9.49811 11.321 9.67664 11.1531C9.85516 10.9851 10.0883 10.8873 10.3332 10.8775C10.5537 9.96423 11.0751 9.15166 11.8133 8.57049C12.5515 7.98932 13.4638 7.67332 14.4033 7.67332C15.3429 7.67332 16.2552 7.98932 16.9934 8.57049C17.7316 9.15166 18.253 9.96423 18.4735 10.8775C18.7178 10.8839 18.9517 10.978 19.1323 11.1425C19.313 11.3071 19.4284 11.5312 19.4574 11.7739C19.4864 12.0166 19.4271 12.2616 19.2904 12.4641C19.1536 12.6667 18.9486 12.8132 18.7126 12.877C18.6333 12.8872 18.5529 12.8872 18.4735 12.877C18.443 12.9991 18.4125 13.1161 18.3718 13.2331C18.1642 13.8412 17.8194 14.3934 17.3642 14.8469C16.9089 15.3004 16.3554 15.643 15.7465 15.8482C15.502 15.9277 15.2966 16.0967 15.1716 16.3214C14.8053 16.9472 14.1948 18.2802 14.6628 19.5674C15.0548 18.8789 15.6061 18.2944 16.2705 17.863C17.5628 17.0744 19.5165 17.3237 19.5572 19.1451C19.5827 20.1498 19.218 21.1254 18.5397 21.867C19.5688 21.2678 20.4599 20.4581 21.1548 19.491C24.6856 14.5152 21.6076 6.6242 14.5051 6.42069C12.7392 6.39699 11.0119 6.93801 9.57502 7.96486C8.13816 8.99171 7.06688 10.4507 6.51738 12.1291C6.49863 12.2107 6.46316 12.2875 6.41321 12.3547C6.36327 12.4218 6.29994 12.4779 6.22722 12.5194C6.1545 12.5609 6.07397 12.5868 5.99073 12.5956C5.90748 12.6043 5.82331 12.5957 5.74356 12.5703C5.6638 12.5449 5.59017 12.5032 5.52734 12.4479C5.4645 12.3926 5.41381 12.3249 5.37848 12.249C5.34315 12.1731 5.32393 12.0907 5.32205 12.007C5.32017 11.9234 5.33567 11.8402 5.36756 11.7628C8.83738 1.71455 23.4748 3.81069 23.8869 14.5712C23.9988 20.7324 18.4583 24.8026 13.1111 24.126Z" fill="white"/>
<path d="M14.4942 10.7636C14.5008 10.7499 14.5045 10.735 14.5051 10.7198H14.4898C14.5946 10.4475 14.7684 10.2072 14.9943 10.0226C15.2202 9.83797 15.4903 9.71538 15.778 9.66692C16.0657 9.61846 16.361 9.6458 16.6349 9.74624C16.9088 9.84669 17.1518 10.0168 17.34 10.2397C17.5281 10.4627 17.6549 10.7308 17.7079 11.0177C17.7609 11.3046 17.7382 11.6004 17.642 11.8758C17.5459 12.1512 17.3797 12.3969 17.1597 12.5885C16.9397 12.7801 16.6736 12.9111 16.3875 12.9686C16.2406 13.0053 16.1103 13.0906 16.018 13.2107C15.9256 13.3308 15.8766 13.4785 15.8788 13.63V13.9353C15.8788 14.2402 15.7576 14.5327 15.542 14.7483C15.3264 14.964 15.0339 15.0851 14.729 15.0851H14.0319C13.727 15.0851 13.4345 14.964 13.2189 14.7483C13.0033 14.5327 12.8821 14.2402 12.8821 13.9353V13.63C12.8843 13.4785 12.8353 13.3308 12.7429 13.2107C12.6506 13.0906 12.5203 13.0053 12.3733 12.9686C12.0858 12.9115 11.8182 12.7803 11.597 12.5881C11.3757 12.3958 11.2084 12.1491 11.1117 11.8724C11.015 11.5957 10.9922 11.2986 11.0456 11.0103C11.0989 10.7221 11.2266 10.4528 11.4159 10.2291C11.6053 10.0053 11.8497 9.83483 12.1251 9.73451C12.4006 9.63419 12.6974 9.6075 12.9863 9.65707C13.2752 9.70664 13.5461 9.83076 13.7724 10.0171C13.9986 10.2035 14.1722 10.4458 14.2761 10.7198C14.2785 10.7474 14.2905 10.7732 14.31 10.7928C14.3296 10.8124 14.3554 10.8244 14.383 10.8267C14.3981 10.8281 14.4133 10.8264 14.4278 10.8217C14.4422 10.817 14.4555 10.8094 14.467 10.7995C14.4784 10.7895 14.4877 10.7772 14.4942 10.7636Z" fill="#010014"/>
<path d="M13.513 11.9409C13.5151 11.9595 13.5106 11.9783 13.5004 11.9941C13.4902 12.0099 13.4749 12.0216 13.457 12.0274H13.3909H13.3247H13.2586H13.1518C12.875 12.0276 12.6049 11.9423 12.3784 11.7832C12.3119 11.7514 12.2474 11.7157 12.1851 11.6763C12.1397 11.628 12.0972 11.577 12.0579 11.5237C12.0203 11.47 11.9863 11.414 11.9561 11.3558C11.9309 11.3034 11.9178 11.246 11.9178 11.1879C11.9178 11.1298 11.9309 11.0724 11.9561 11.02C11.9771 10.9728 12.0064 10.9297 12.0426 10.8928C12.087 10.8474 12.1414 10.8131 12.2016 10.7927C12.2617 10.7724 12.3258 10.7666 12.3886 10.7758C12.6737 10.8167 12.9378 10.9487 13.1416 11.1523L13.1925 11.2032L13.2281 11.2489C13.2659 11.2887 13.2984 11.3331 13.3247 11.3812L13.3553 11.427C13.3668 11.4423 13.3754 11.4595 13.3807 11.4779L13.4061 11.5288V11.5796C13.4061 11.5796 13.4061 11.6254 13.4316 11.6458C13.4522 11.7088 13.4675 11.7735 13.4774 11.8391C13.4749 11.8509 13.4749 11.863 13.4774 11.8747C13.4952 11.893 13.5075 11.916 13.513 11.9409Z" fill="white"/>
<path d="M16.8251 11.3405C16.7804 11.4279 16.7257 11.5099 16.6623 11.5847C16.6429 11.6109 16.6208 11.6348 16.5961 11.656C16.54 11.7155 16.4787 11.77 16.413 11.8188C16.1881 11.9772 15.9198 12.0625 15.6447 12.063H15.5481H15.4768H15.4005H15.3446C15.328 12.0584 15.3135 12.0484 15.3033 12.0346C15.2932 12.0207 15.288 12.0038 15.2886 11.9867C15.2858 11.963 15.2858 11.9391 15.2886 11.9154C15.2939 11.8654 15.3041 11.816 15.3191 11.7679C15.3176 11.7459 15.3176 11.7238 15.3191 11.7018C15.3191 11.7018 15.3191 11.6611 15.3191 11.6407L15.3802 11.5135C15.4254 11.4237 15.4818 11.3399 15.5481 11.2642L15.5989 11.2133C15.6488 11.1591 15.7052 11.1112 15.7668 11.0709C15.9408 10.949 16.1414 10.8705 16.3519 10.8419C16.4136 10.8317 16.4768 10.8365 16.5361 10.856C16.5955 10.8755 16.6493 10.9091 16.6928 10.9539C16.7291 10.9926 16.7583 11.0374 16.7793 11.0861C16.8007 11.1351 16.8118 11.1879 16.8118 11.2413C16.8118 11.2947 16.8007 11.3476 16.7793 11.3965L16.8251 11.3405Z" fill="white"/>
<path d="M18.5854 12.4751C18.5754 12.4767 18.5651 12.4744 18.5566 12.4687C18.5481 12.4631 18.5421 12.4545 18.5396 12.4446C18.564 12.2641 18.5759 12.0822 18.5753 11.9002C18.5762 11.7181 18.5643 11.5362 18.5396 11.3558C18.5381 11.3457 18.5403 11.3354 18.546 11.327C18.5516 11.3185 18.5603 11.3124 18.5702 11.31C18.7251 11.3441 18.8603 11.4382 18.9461 11.5717C19.0319 11.7051 19.0614 11.8671 19.0281 12.0223C19.005 12.1356 18.9493 12.2397 18.868 12.3219C18.7867 12.4042 18.6832 12.4609 18.5702 12.4853L18.5854 12.4751Z" fill="white"/>
<path d="M10.2111 11.89C10.2103 12.0602 10.2223 12.2303 10.2467 12.3988C10.2471 12.4139 10.2423 12.4288 10.233 12.4409C10.2237 12.4529 10.2106 12.4614 10.1958 12.4649C10.0417 12.4231 9.91029 12.3222 9.83025 12.184C9.7502 12.0458 9.72799 11.8817 9.76843 11.7272C9.7963 11.6255 9.85047 11.5329 9.92549 11.4587C10.0005 11.3846 10.0937 11.3315 10.1958 11.3049C10.2028 11.3026 10.2103 11.3019 10.2176 11.3027C10.2249 11.3036 10.232 11.306 10.2383 11.3099C10.2446 11.3138 10.25 11.319 10.2541 11.3252C10.2581 11.3313 10.2608 11.3383 10.2619 11.3456C10.2311 11.5255 10.214 11.7075 10.2111 11.89Z" fill="white"/>
</g>
<defs>
<clipPath id="clip0">
<rect width="29" height="29" fill="white"/>
</clipPath>
</defs>
</svg>
